<svg width="114" height="122" viewBox="0 0 114 122" fill="none" xmlns="http://www.w3.org/2000/svg">
<path d="M57 61C74.9906 61 89.5714 47.3465 89.5714 30.5C89.5714 13.6535 74.9906 0 57 0C39.0094 0 24.4286 13.6535 24.4286 30.5C24.4286 47.3465 39.0094 61 57 61ZM79.8 68.625H75.5504C69.9013 71.0555 63.6161 72.4375 57 72.4375C50.3839 72.4375 44.1241 71.0555 38.4496 68.625H34.2C15.3188 68.625 0 82.9695 0 100.65V110.562C0 116.877 5.47098 122 12.2143 122H101.786C108.529 122 114 116.877 114 110.562V100.65C114 82.9695 98.6813 68.625 79.8 68.625Z" fill="black"/>
</svg>
