<svg width="30" height="30" viewBox="0 0 30 30" fill="none" xmlns="http://www.w3.org/2000/svg">
<path d="M9.91071 16.875H7.23214C6.79018 16.875 6.42857 16.5586 6.42857 16.1719V13.8281C6.42857 13.4414 6.79018 13.125 7.23214 13.125H9.91071C10.3527 13.125 10.7143 13.4414 10.7143 13.8281V16.1719C10.7143 16.5586 10.3527 16.875 9.91071 16.875ZM17.1429 16.1719V13.8281C17.1429 13.4414 16.7812 13.125 16.3393 13.125H13.6607C13.2188 13.125 12.8571 13.4414 12.8571 13.8281V16.1719C12.8571 16.5586 13.2188 16.875 13.6607 16.875H16.3393C16.7812 16.875 17.1429 16.5586 17.1429 16.1719ZM23.5714 16.1719V13.8281C23.5714 13.4414 23.2098 13.125 22.7679 13.125H20.0893C19.6473 13.125 19.2857 13.4414 19.2857 13.8281V16.1719C19.2857 16.5586 19.6473 16.875 20.0893 16.875H22.7679C23.2098 16.875 23.5714 16.5586 23.5714 16.1719ZM17.1429 21.7969V19.4531C17.1429 19.0664 16.7812 18.75 16.3393 18.75H13.6607C13.2188 18.75 12.8571 19.0664 12.8571 19.4531V21.7969C12.8571 22.1836 13.2188 22.5 13.6607 22.5H16.3393C16.7812 22.5 17.1429 22.1836 17.1429 21.7969ZM10.7143 21.7969V19.4531C10.7143 19.0664 10.3527 18.75 9.91071 18.75H7.23214C6.79018 18.75 6.42857 19.0664 6.42857 19.4531V21.7969C6.42857 22.1836 6.79018 22.5 7.23214 22.5H9.91071C10.3527 22.5 10.7143 22.1836 10.7143 21.7969ZM23.5714 21.7969V19.4531C23.5714 19.0664 23.2098 18.75 22.7679 18.75H20.0893C19.6473 18.75 19.2857 19.0664 19.2857 19.4531V21.7969C19.2857 22.1836 19.6473 22.5 20.0893 22.5H22.7679C23.2098 22.5 23.5714 22.1836 23.5714 21.7969ZM30 6.5625V27.1875C30 28.7402 28.5603 30 26.7857 30H3.21429C1.43973 30 0 28.7402 0 27.1875V6.5625C0 5.00977 1.43973 3.75 3.21429 3.75H6.42857V0.703125C6.42857 0.316406 6.79018 0 7.23214 0H9.91071C10.3527 0 10.7143 0.316406 10.7143 0.703125V3.75H19.2857V0.703125C19.2857 0.316406 19.6473 0 20.0893 0H22.7679C23.2098 0 23.5714 0.316406 23.5714 0.703125V3.75H26.7857C28.5603 3.75 30 5.00977 30 6.5625ZM26.7857 26.8359V9.375H3.21429V26.8359C3.21429 27.0293 3.39509 27.1875 3.61607 27.1875H26.3839C26.6049 27.1875 26.7857 27.0293 26.7857 26.8359Z" fill="black"/>
</svg>
