<svg width="124" height="221" viewBox="0 0 124 221" fill="none" xmlns="http://www.w3.org/2000/svg">
<path d="M90.0726 100.745L43.5726 87.1051C38.1906 85.5512 34.4448 80.501 34.4448 74.8896C34.4448 67.8539 40.1281 62.1562 47.1462 62.1562H75.692C80.9448 62.1562 86.1115 63.7533 90.417 66.6885C93.0434 68.4582 96.574 68.0266 98.8129 65.8252L113.796 51.1494C116.853 48.1711 116.423 43.2072 113.021 40.5742C102.473 32.2867 89.2976 27.6682 75.7781 27.625V6.90625C75.7781 3.10781 72.6781 0 68.8893 0H55.1115C51.3226 0 48.2226 3.10781 48.2226 6.90625V27.625H47.1462C19.7198 27.625 -2.32463 51.2357 0.215644 79.2492C2.02398 99.1479 17.1795 115.334 36.2962 120.946L80.4281 133.895C85.8101 135.492 89.5559 140.499 89.5559 146.11C89.5559 153.146 83.8726 158.844 76.8545 158.844H48.3087C43.0559 158.844 37.8893 157.247 33.5837 154.312C30.9573 152.542 27.4268 152.973 25.1879 155.175L10.2045 169.851C7.14759 172.829 7.57814 177.793 10.9795 180.426C21.5281 188.713 34.7031 193.332 48.2226 193.375V214.094C48.2226 217.892 51.3226 221 55.1115 221H68.8893C72.6781 221 75.7781 217.892 75.7781 214.094V193.289C95.842 192.9 114.657 180.944 121.288 161.908C130.545 135.319 115.002 108.04 90.0726 100.745V100.745Z" fill="#8C91F4"/>
</svg>
