<svg width="229" height="171" viewBox="0 0 229 171" fill="none" xmlns="http://www.w3.org/2000/svg">
<path d="M185.776 42.7166L168.744 26.8189C164.975 23.3316 159.882 21.375 154.575 21.375H73.4231C68.1275 21.375 63.0108 23.3455 59.2537 26.8189L42.2219 42.7166H0V128.116H22.9C29.1975 128.116 34.2784 123.374 34.3142 117.529H37.5703L67.8412 143.046C78.8977 151.429 94.2478 151.629 105.626 144.315C110.099 147.922 114.929 149.625 120.332 149.625C126.845 149.625 132.963 147.154 137.794 141.609C145.701 144.515 155.04 142.478 160.694 135.998L170.068 125.211C172.072 122.906 173.324 120.268 173.968 117.529H194.686C194.722 123.374 199.838 128.116 206.1 128.116H229V42.7166H185.776ZM17.175 117.429C14.0262 117.429 11.45 115.024 11.45 112.085C11.45 109.146 14.0262 106.741 17.175 106.741C20.3237 106.741 22.9 109.146 22.9 112.085C22.9 115.058 20.3237 117.429 17.175 117.429ZM156.722 115.124L147.383 125.879C146.381 127.014 144.592 127.215 143.34 126.279L134.788 119.8L124.054 131.991C121.907 134.429 118.686 133.594 117.613 132.792L104.445 122.272L98.8636 128.684C93.89 134.395 84.8373 135.264 79.0766 130.888L44.2614 101.498H34.35V58.7145H49.3423L71.4194 38.141C72.135 37.8738 72.7433 37.64 73.4589 37.3729H93.7469L79.8995 49.2293C69.3798 58.2135 68.7716 73.3764 78.3251 83.0619C83.6208 88.4725 100.223 96.8221 114.643 84.5314L117.577 82.0266L156.292 111.35C157.509 112.286 157.688 113.989 156.722 115.124ZM194.65 101.498H169.889C169.066 100.563 168.136 99.6943 167.134 98.9262L130.387 71.0719L134.86 67.2645C137.185 65.2605 137.364 61.8873 135.217 59.7164L131.317 55.8088C129.17 53.6379 125.556 53.5043 123.231 55.4748L103.479 72.3744C100.08 75.2801 94.2836 75.5139 91.0991 72.3744C87.7714 69.068 88.0577 63.9914 91.5284 61.0523L115.001 40.9799C117.649 38.7088 121.084 37.473 124.662 37.473L154.611 37.4062C155.362 37.4062 156.078 37.6734 156.579 38.1744L178.656 58.7478H194.65V101.498ZM211.825 117.429C208.676 117.429 206.1 115.024 206.1 112.085C206.1 109.146 208.676 106.741 211.825 106.741C214.974 106.741 217.55 109.146 217.55 112.085C217.55 115.058 214.974 117.429 211.825 117.429Z" fill="#8C91F4"/>
</svg>
